%TF.GenerationSoftware,KiCad,Pcbnew,10.0.1*%
%TF.CreationDate,2026-04-22T12:27:39-06:00*%
%TF.ProjectId,Capa de Control Inferior para Rele,43617061-2064-4652-9043-6f6e74726f6c,rev?*%
%TF.SameCoordinates,Original*%
%TF.FileFunction,Copper,L2,Bot*%
%TF.FilePolarity,Positive*%
%FSLAX46Y46*%
G04 Gerber Fmt 4.6, Leading zero omitted, Abs format (unit mm)*
G04 Created by KiCad (PCBNEW 10.0.1) date 2026-04-22 12:27:39*
%MOMM*%
%LPD*%
G01*
G04 APERTURE LIST*
%TA.AperFunction,ComponentPad*%
%ADD10R,1.700000X1.700000*%
%TD*%
%TA.AperFunction,ComponentPad*%
%ADD11C,1.700000*%
%TD*%
%TA.AperFunction,ComponentPad*%
%ADD12R,2.500000X2.500000*%
%TD*%
%TA.AperFunction,ComponentPad*%
%ADD13O,2.500000X2.500000*%
%TD*%
%TA.AperFunction,Conductor*%
%ADD14C,1.000000*%
%TD*%
G04 APERTURE END LIST*
D10*
%TO.P,J2,1,Pin_1_1*%
%TO.N,C*%
X116775000Y-78420000D03*
D11*
%TO.P,J2,2,Pin_2_2*%
%TO.N,NC*%
X116775000Y-80960000D03*
%TO.P,J2,3,Pin_3_3*%
%TO.N,NA*%
X116775000Y-83500000D03*
%TD*%
D10*
%TO.P,J1,1,Pin_1_1*%
%TO.N,+5V*%
X104275000Y-78420000D03*
D11*
%TO.P,J1,2,Pin_2_2*%
%TO.N,GND*%
X104275000Y-80960000D03*
%TO.P,J1,3,Pin_3_3*%
%TO.N,Net-(J1-Pin_3)*%
X104275000Y-83500000D03*
%TD*%
D12*
%TO.P,K1,1*%
%TO.N,C*%
X110500000Y-72872500D03*
D13*
%TO.P,K1,2*%
%TO.N,Net-(D1-A)*%
X116500000Y-74872500D03*
%TO.P,K1,3*%
%TO.N,NA*%
X116500000Y-87072500D03*
%TO.P,K1,4*%
%TO.N,NC*%
X104500000Y-87072500D03*
%TO.P,K1,5*%
%TO.N,+5V*%
X104500000Y-74872500D03*
%TD*%
%TO.N,C*%
D14*
X111227500Y-72872500D02*
X116775000Y-78420000D01*
X110500000Y-72872500D02*
X111227500Y-72872500D01*
%TO.N,NC*%
X110662500Y-87072500D02*
X116775000Y-80960000D01*
X104500000Y-87072500D02*
X110662500Y-87072500D01*
%TO.N,NA*%
X116500000Y-87072500D02*
X116500000Y-83775000D01*
X116500000Y-83775000D02*
X116775000Y-83500000D01*
%TD*%
%TA.AperFunction,Conductor*%
%TO.N,GND*%
G36*
X118442539Y-70520185D02*
G01*
X118488294Y-70572989D01*
X118499500Y-70624500D01*
X118499500Y-92375500D01*
X118479815Y-92442539D01*
X118427011Y-92488294D01*
X118375500Y-92499500D01*
X102624500Y-92499500D01*
X102557461Y-92479815D01*
X102511706Y-92427011D01*
X102500500Y-92375500D01*
X102500500Y-86950473D01*
X102949500Y-86950473D01*
X102949500Y-87194527D01*
X102987679Y-87435576D01*
X103063096Y-87667685D01*
X103167708Y-87872999D01*
X103173896Y-87885142D01*
X103317339Y-88082576D01*
X103317343Y-88082581D01*
X103489918Y-88255156D01*
X103489923Y-88255160D01*
X103662136Y-88380279D01*
X103687361Y-88398606D01*
X103904815Y-88509404D01*
X104136924Y-88584821D01*
X104377973Y-88623000D01*
X104377974Y-88623000D01*
X104622026Y-88623000D01*
X104622027Y-88623000D01*
X104863076Y-88584821D01*
X105095185Y-88509404D01*
X105312639Y-88398606D01*
X105510083Y-88255155D01*
X105682655Y-88082583D01*
X105696453Y-88063590D01*
X105797789Y-87924115D01*
X105853118Y-87881449D01*
X105898107Y-87873000D01*
X110741344Y-87873000D01*
X110741345Y-87872999D01*
X110895997Y-87842237D01*
X111041679Y-87781894D01*
X111172789Y-87694289D01*
X115412819Y-83454257D01*
X115474142Y-83420773D01*
X115543834Y-83425757D01*
X115599767Y-83467629D01*
X115624184Y-83533093D01*
X115624500Y-83541939D01*
X115624500Y-83590551D01*
X115652828Y-83769409D01*
X115693431Y-83894370D01*
X115699500Y-83932688D01*
X115699500Y-85674393D01*
X115679815Y-85741432D01*
X115648385Y-85774711D01*
X115489923Y-85889839D01*
X115489918Y-85889843D01*
X115317343Y-86062418D01*
X115317339Y-86062423D01*
X115173896Y-86259857D01*
X115063097Y-86477312D01*
X114987678Y-86709427D01*
X114949500Y-86950473D01*
X114949500Y-87194527D01*
X114987679Y-87435576D01*
X115063096Y-87667685D01*
X115167708Y-87872999D01*
X115173896Y-87885142D01*
X115317339Y-88082576D01*
X115317343Y-88082581D01*
X115489918Y-88255156D01*
X115489923Y-88255160D01*
X115662136Y-88380279D01*
X115687361Y-88398606D01*
X115904815Y-88509404D01*
X116136924Y-88584821D01*
X116377973Y-88623000D01*
X116377974Y-88623000D01*
X116622026Y-88623000D01*
X116622027Y-88623000D01*
X116863076Y-88584821D01*
X117095185Y-88509404D01*
X117312639Y-88398606D01*
X117510083Y-88255155D01*
X117682655Y-88082583D01*
X117826106Y-87885139D01*
X117936904Y-87667685D01*
X118012321Y-87435576D01*
X118050500Y-87194527D01*
X118050500Y-86950473D01*
X118012321Y-86709424D01*
X117936904Y-86477315D01*
X117826106Y-86259861D01*
X117797788Y-86220885D01*
X117682660Y-86062423D01*
X117682656Y-86062418D01*
X117510081Y-85889843D01*
X117510076Y-85889839D01*
X117351615Y-85774711D01*
X117308949Y-85719382D01*
X117300500Y-85674393D01*
X117300500Y-84599468D01*
X117320185Y-84532429D01*
X117368207Y-84488982D01*
X117377994Y-84483996D01*
X117524501Y-84377553D01*
X117652553Y-84249501D01*
X117758996Y-84102994D01*
X117841211Y-83941639D01*
X117897171Y-83769409D01*
X117911765Y-83677259D01*
X117925500Y-83590551D01*
X117925500Y-83409448D01*
X117909019Y-83305397D01*
X117897171Y-83230591D01*
X117841211Y-83058361D01*
X117841211Y-83058360D01*
X117812740Y-83002484D01*
X117758996Y-82897006D01*
X117745396Y-82878287D01*
X117652558Y-82750505D01*
X117652554Y-82750500D01*
X117524499Y-82622445D01*
X117524494Y-82622441D01*
X117377997Y-82516006D01*
X117377996Y-82516005D01*
X117377994Y-82516004D01*
X117326300Y-82489664D01*
X117216639Y-82433788D01*
X117216636Y-82433787D01*
X117044410Y-82377829D01*
X116884321Y-82352473D01*
X116821186Y-82322544D01*
X116784255Y-82263232D01*
X116785253Y-82193370D01*
X116823863Y-82135137D01*
X116884321Y-82107527D01*
X116954425Y-82096422D01*
X117044409Y-82082171D01*
X117216639Y-82026211D01*
X117377994Y-81943996D01*
X117524501Y-81837553D01*
X117652553Y-81709501D01*
X117758996Y-81562994D01*
X117841211Y-81401639D01*
X117897171Y-81229409D01*
X117911765Y-81137259D01*
X117925500Y-81050551D01*
X117925500Y-80869448D01*
X117909019Y-80765397D01*
X117897171Y-80690591D01*
X117841211Y-80518361D01*
X117841211Y-80518360D01*
X117812740Y-80462484D01*
X117758996Y-80357006D01*
X117745396Y-80338287D01*
X117652558Y-80210505D01*
X117652554Y-80210500D01*
X117524499Y-80082445D01*
X117524494Y-80082441D01*
X117377997Y-79976006D01*
X117377996Y-79976005D01*
X117377994Y-79976004D01*
X117326300Y-79949664D01*
X117216639Y-79893788D01*
X117216636Y-79893787D01*
X117044410Y-79837829D01*
X116912728Y-79816972D01*
X116849594Y-79787042D01*
X116812663Y-79727731D01*
X116813661Y-79657868D01*
X116852271Y-79599636D01*
X116916235Y-79571522D01*
X116932120Y-79570499D01*
X117669864Y-79570499D01*
X117669879Y-79570497D01*
X117669882Y-79570497D01*
X117694987Y-79567586D01*
X117694988Y-79567585D01*
X117694991Y-79567585D01*
X117797765Y-79522206D01*
X117877206Y-79442765D01*
X117922585Y-79339991D01*
X117925500Y-79314865D01*
X117925499Y-77525136D01*
X117925497Y-77525117D01*
X117922586Y-77500012D01*
X117922585Y-77500010D01*
X117922585Y-77500009D01*
X117877206Y-77397235D01*
X117797765Y-77317794D01*
X117797763Y-77317793D01*
X117694992Y-77272415D01*
X117669868Y-77269500D01*
X117669865Y-77269500D01*
X116807940Y-77269500D01*
X116740901Y-77249815D01*
X116720259Y-77233181D01*
X116091878Y-76604800D01*
X116058393Y-76543477D01*
X116063377Y-76473785D01*
X116105249Y-76417852D01*
X116170713Y-76393435D01*
X116198955Y-76394645D01*
X116377973Y-76423000D01*
X116377974Y-76423000D01*
X116622026Y-76423000D01*
X116622027Y-76423000D01*
X116863076Y-76384821D01*
X117095185Y-76309404D01*
X117312639Y-76198606D01*
X117510083Y-76055155D01*
X117682655Y-75882583D01*
X117826106Y-75685139D01*
X117936904Y-75467685D01*
X118012321Y-75235576D01*
X118050500Y-74994527D01*
X118050500Y-74750473D01*
X118012321Y-74509424D01*
X117936904Y-74277315D01*
X117826106Y-74059861D01*
X117807779Y-74034636D01*
X117682660Y-73862423D01*
X117682656Y-73862418D01*
X117510081Y-73689843D01*
X117510076Y-73689839D01*
X117312642Y-73546396D01*
X117312641Y-73546395D01*
X117312639Y-73546394D01*
X117095185Y-73435596D01*
X116863076Y-73360179D01*
X116863074Y-73360178D01*
X116863072Y-73360178D01*
X116694769Y-73333521D01*
X116622027Y-73322000D01*
X116377973Y-73322000D01*
X116322093Y-73330850D01*
X116136927Y-73360178D01*
X115904812Y-73435597D01*
X115687357Y-73546396D01*
X115489923Y-73689839D01*
X115489918Y-73689843D01*
X115317343Y-73862418D01*
X115317339Y-73862423D01*
X115173896Y-74059857D01*
X115063097Y-74277312D01*
X114987678Y-74509427D01*
X114949500Y-74750473D01*
X114949500Y-74994526D01*
X114977853Y-75173542D01*
X114968898Y-75242836D01*
X114923902Y-75296288D01*
X114857150Y-75316927D01*
X114789837Y-75298202D01*
X114767699Y-75280621D01*
X112086818Y-72599740D01*
X112053333Y-72538417D01*
X112050499Y-72512059D01*
X112050499Y-71577643D01*
X112050499Y-71577636D01*
X112050497Y-71577617D01*
X112047586Y-71552512D01*
X112047585Y-71552510D01*
X112047585Y-71552509D01*
X112002206Y-71449735D01*
X111922765Y-71370294D01*
X111922763Y-71370293D01*
X111819992Y-71324915D01*
X111794865Y-71322000D01*
X109205143Y-71322000D01*
X109205117Y-71322002D01*
X109180012Y-71324913D01*
X109180008Y-71324915D01*
X109077235Y-71370293D01*
X108997794Y-71449734D01*
X108952415Y-71552506D01*
X108952415Y-71552508D01*
X108949500Y-71577631D01*
X108949500Y-74167356D01*
X108949502Y-74167382D01*
X108952413Y-74192487D01*
X108952415Y-74192491D01*
X108997793Y-74295264D01*
X108997794Y-74295265D01*
X109077235Y-74374706D01*
X109180009Y-74420085D01*
X109205135Y-74423000D01*
X111594559Y-74422999D01*
X111661598Y-74442684D01*
X111682240Y-74459318D01*
X115588181Y-78365259D01*
X115621666Y-78426582D01*
X115624500Y-78452940D01*
X115624500Y-79314856D01*
X115624502Y-79314882D01*
X115627413Y-79339987D01*
X115627415Y-79339991D01*
X115672793Y-79442764D01*
X115672794Y-79442765D01*
X115752235Y-79522206D01*
X115855009Y-79567585D01*
X115880135Y-79570500D01*
X116617873Y-79570499D01*
X116684910Y-79590183D01*
X116730665Y-79642987D01*
X116740609Y-79712146D01*
X116711584Y-79775702D01*
X116652806Y-79813476D01*
X116637270Y-79816972D01*
X116505589Y-79837829D01*
X116333363Y-79893787D01*
X116333360Y-79893788D01*
X116172002Y-79976006D01*
X116025505Y-80082441D01*
X116025500Y-80082445D01*
X115897445Y-80210500D01*
X115897441Y-80210505D01*
X115791006Y-80357002D01*
X115708788Y-80518360D01*
X115708787Y-80518363D01*
X115652829Y-80690589D01*
X115624500Y-80869448D01*
X115624500Y-80927060D01*
X115604815Y-80994099D01*
X115588181Y-81014741D01*
X110367241Y-86235681D01*
X110305918Y-86269166D01*
X110279560Y-86272000D01*
X105898107Y-86272000D01*
X105831068Y-86252315D01*
X105797789Y-86220885D01*
X105682660Y-86062423D01*
X105682656Y-86062418D01*
X105510081Y-85889843D01*
X105510076Y-85889839D01*
X105312642Y-85746396D01*
X105312641Y-85746395D01*
X105312639Y-85746394D01*
X105095185Y-85635596D01*
X104863076Y-85560179D01*
X104863074Y-85560178D01*
X104863072Y-85560178D01*
X104694769Y-85533521D01*
X104622027Y-85522000D01*
X104377973Y-85522000D01*
X104322093Y-85530850D01*
X104136927Y-85560178D01*
X103904812Y-85635597D01*
X103687357Y-85746396D01*
X103489923Y-85889839D01*
X103489918Y-85889843D01*
X103317343Y-86062418D01*
X103317339Y-86062423D01*
X103173896Y-86259857D01*
X103063097Y-86477312D01*
X102987678Y-86709427D01*
X102949500Y-86950473D01*
X102500500Y-86950473D01*
X102500500Y-83409448D01*
X103124500Y-83409448D01*
X103124500Y-83590551D01*
X103152829Y-83769410D01*
X103208787Y-83941636D01*
X103208788Y-83941639D01*
X103291006Y-84102997D01*
X103397441Y-84249494D01*
X103397445Y-84249499D01*
X103525500Y-84377554D01*
X103525505Y-84377558D01*
X103653287Y-84470396D01*
X103672006Y-84483996D01*
X103767061Y-84532429D01*
X103833360Y-84566211D01*
X103833363Y-84566212D01*
X103919476Y-84594191D01*
X104005591Y-84622171D01*
X104088429Y-84635291D01*
X104184449Y-84650500D01*
X104184454Y-84650500D01*
X104365551Y-84650500D01*
X104452259Y-84636765D01*
X104544409Y-84622171D01*
X104716639Y-84566211D01*
X104877994Y-84483996D01*
X105024501Y-84377553D01*
X105152553Y-84249501D01*
X105258996Y-84102994D01*
X105341211Y-83941639D01*
X105397171Y-83769409D01*
X105411765Y-83677259D01*
X105425500Y-83590551D01*
X105425500Y-83409448D01*
X105409019Y-83305397D01*
X105397171Y-83230591D01*
X105341211Y-83058361D01*
X105341211Y-83058360D01*
X105312740Y-83002484D01*
X105258996Y-82897006D01*
X105245396Y-82878287D01*
X105152558Y-82750505D01*
X105152554Y-82750500D01*
X105024499Y-82622445D01*
X105024494Y-82622441D01*
X104877997Y-82516006D01*
X104877996Y-82516005D01*
X104877994Y-82516004D01*
X104826300Y-82489664D01*
X104716639Y-82433788D01*
X104716636Y-82433787D01*
X104544410Y-82377829D01*
X104365551Y-82349500D01*
X104365546Y-82349500D01*
X104184454Y-82349500D01*
X104184449Y-82349500D01*
X104005589Y-82377829D01*
X103833363Y-82433787D01*
X103833360Y-82433788D01*
X103672002Y-82516006D01*
X103525505Y-82622441D01*
X103525500Y-82622445D01*
X103397445Y-82750500D01*
X103397441Y-82750505D01*
X103291006Y-82897002D01*
X103208788Y-83058360D01*
X103208787Y-83058363D01*
X103152829Y-83230589D01*
X103124500Y-83409448D01*
X102500500Y-83409448D01*
X102500500Y-77525131D01*
X103124500Y-77525131D01*
X103124500Y-79314856D01*
X103124502Y-79314882D01*
X103127413Y-79339987D01*
X103127415Y-79339991D01*
X103172793Y-79442764D01*
X103172794Y-79442765D01*
X103252235Y-79522206D01*
X103355009Y-79567585D01*
X103380135Y-79570500D01*
X105169864Y-79570499D01*
X105169879Y-79570497D01*
X105169882Y-79570497D01*
X105194987Y-79567586D01*
X105194988Y-79567585D01*
X105194991Y-79567585D01*
X105297765Y-79522206D01*
X105377206Y-79442765D01*
X105422585Y-79339991D01*
X105425500Y-79314865D01*
X105425499Y-77525136D01*
X105425497Y-77525117D01*
X105422586Y-77500012D01*
X105422585Y-77500010D01*
X105422585Y-77500009D01*
X105377206Y-77397235D01*
X105297765Y-77317794D01*
X105297763Y-77317793D01*
X105194992Y-77272415D01*
X105169865Y-77269500D01*
X103380143Y-77269500D01*
X103380117Y-77269502D01*
X103355012Y-77272413D01*
X103355008Y-77272415D01*
X103252235Y-77317793D01*
X103172794Y-77397234D01*
X103127415Y-77500006D01*
X103127415Y-77500008D01*
X103124500Y-77525131D01*
X102500500Y-77525131D01*
X102500500Y-74750473D01*
X102949500Y-74750473D01*
X102949500Y-74994526D01*
X102977853Y-75173542D01*
X102987679Y-75235576D01*
X103008027Y-75298202D01*
X103063097Y-75467687D01*
X103173896Y-75685142D01*
X103317339Y-75882576D01*
X103317343Y-75882581D01*
X103489918Y-76055156D01*
X103489923Y-76055160D01*
X103662136Y-76180279D01*
X103687361Y-76198606D01*
X103904815Y-76309404D01*
X104136924Y-76384821D01*
X104377973Y-76423000D01*
X104377974Y-76423000D01*
X104622026Y-76423000D01*
X104622027Y-76423000D01*
X104863076Y-76384821D01*
X105095185Y-76309404D01*
X105312639Y-76198606D01*
X105510083Y-76055155D01*
X105682655Y-75882583D01*
X105826106Y-75685139D01*
X105936904Y-75467685D01*
X106012321Y-75235576D01*
X106050500Y-74994527D01*
X106050500Y-74750473D01*
X106012321Y-74509424D01*
X105936904Y-74277315D01*
X105826106Y-74059861D01*
X105807779Y-74034636D01*
X105682660Y-73862423D01*
X105682656Y-73862418D01*
X105510081Y-73689843D01*
X105510076Y-73689839D01*
X105312642Y-73546396D01*
X105312641Y-73546395D01*
X105312639Y-73546394D01*
X105095185Y-73435596D01*
X104863076Y-73360179D01*
X104863074Y-73360178D01*
X104863072Y-73360178D01*
X104694769Y-73333521D01*
X104622027Y-73322000D01*
X104377973Y-73322000D01*
X104322093Y-73330850D01*
X104136927Y-73360178D01*
X103904812Y-73435597D01*
X103687357Y-73546396D01*
X103489923Y-73689839D01*
X103489918Y-73689843D01*
X103317343Y-73862418D01*
X103317339Y-73862423D01*
X103173896Y-74059857D01*
X103063097Y-74277312D01*
X102987678Y-74509427D01*
X102949500Y-74750473D01*
X102500500Y-74750473D01*
X102500500Y-70624500D01*
X102520185Y-70557461D01*
X102572989Y-70511706D01*
X102624500Y-70500500D01*
X118375500Y-70500500D01*
X118442539Y-70520185D01*
G37*
%TD.AperFunction*%
%TD*%
M02*
